Musala.ufo
<glyph name="exclam" format="2">
	<advance width="278.92"/>
	<unicode hex="0021"/>
	<outline>
		<contour>
			<point x="216.245" y="27.353" type="curve" smooth="yes"/>
			<point x="216.245" y="-18.071"/>
			<point x="179.445" y="-49.894"/>
			<point x="133.125" y="-49.894" type="curve" smooth="yes"/>
			<point x="87.219" y="-49.894"/>
			<point x="50.004" y="-18.071"/>
			<point x="50.004" y="27.353" type="curve" smooth="yes"/>
			<point x="50.004" y="72.777"/>
			<point x="87.219" y="104.599"/>
			<point x="133.125" y="104.599" type="curve" smooth="yes"/>
			<point x="179.365" y="104.599"/>
			<point x="216.245" y="72.777"/>
		</contour>
		<contour>
			<point x="200.835" y="600" type="curve"/>
			<point x="189.74" y="350" type="line"/>
			<point x="190.753" y="320.723"/>
			<point x="199.288" y="256.733"/>
			<point x="200.878" y="238.08" type="curve"/>
			<point x="195.02" y="231.966"/>
			<point x="128.715" y="191.158"/>
			<point x="118.065" y="191.08" type="curve" smooth="yes"/>
			<point x="107.149" y="191"/>
			<point x="69.732" y="202.095"/>
			<point x="64.878" y="206.08" type="curve"/>
			<point x="65.255" y="798.229" type="line"/>
			<point x="228.918" y="798.229" type="line"/>
			<point x="217.974" y="727.997"/>
			<point x="203.513" y="635.464"/>
		</contour>
	</outline>
</glyph>
<glyph name="ampersand" format="2">
	<advance width="645.74"/>
	<unicode hex="0026"/>
	<outline>
		<contour>
			<point x="485.811" y="-8" type="curve"/>
			<point x="491.584" y="-6.791"/>
			<point x="535.021" y="10.853"/>
			<point x="543.917" y="17.18" type="curve" smooth="yes"/>
			<point x="566.60558" y="33.31556"/>
			<point x="599.71389" y="76.63215"/>
			<point x="609.735" y="90.45" type="curve"/>
			<point x="546.60558" y="107.20511"/>
			<point x="232.98777" y="335.11472"/>
			<point x="232.98777" y="577.70646" type="curve"/>
			<point x="232.98777" y="608.00146"/>
			<point x="311.166" y="682.027"/>
			<point x="340.025" y="682.027" type="curve" smooth="yes"/>
			<point x="404.616" y="682.027"/>
			<point x="456.884" y="632.783"/>
			<point x="473.979" y="611.025" type="curve"/>
			<point x="483.568" y="619.203"/>
			<point x="527.622" y="679.886"/>
			<point x="527.622" y="688.327" type="curve" smooth="yes"/>
			<point x="527.622" y="696.142"/>
			<point x="500.925" y="727.503"/>
			<point x="496.627" y="734.027" type="curve"/>
			<point x="482.568" y="747.083"/>
			<point x="428.871" y="775.366"/>
			<point x="381.496" y="775.366" type="curve" smooth="yes"/>
			<point x="331.586" y="775.366"/>
			<point x="262.98" y="755.035"/>
			<point x="242.882" y="744.362" type="curve" smooth="yes"/>
			<point x="211.047" y="727.457"/>
			<point x="114.353" y="611.532"/>
			<point x="114.353" y="522.282" type="curve" smooth="yes"/>
			<point x="114.353" y="472.86"/>
			<point x="178.51724" y="338.76726"/>
			<point x="227.32755" y="268.11062" type="curve" smooth="yes"/>
			<point x="279.68818" y="192.31462"/>
			<point x="376.022" y="84.303"/>
		</contour>
		<contour>
			<point x="210.583" y="-11" type="curve" smooth="yes"/>
			<point x="363.661" y="-11"/>
			<point x="417.173" y="65.582"/>
			<point x="457.36" y="97.828" type="curve" smooth="yes"/>
			<point x="503.672" y="134.988"/>
			<point x="551.207" y="265.368"/>
			<point x="551.207" y="365.778" type="curve"/>
			<point x="486.103" y="429.529" type="line"/>
			<point x="430.101" y="416.868" type="line"/>
			<point x="457.36" y="329.212"/>
			<point x="443.637" y="174.767"/>
			<point x="414.435" y="150.84" type="curve" smooth="yes"/>
			<point x="379.625" y="122.317"/>
			<point x="372.899" y="80.59"/>
			<point x="242.882" y="80.59" type="curve" smooth="yes"/>
			<point x="189.57473" y="80.59"/>
			<point x="161.2601" y="131.97118"/>
			<point x="161.2601" y="214.85909" type="curve" smooth="yes"/>
			<point x="161.2601" y="298.50052"/>
			<point x="187.77952" y="376.71704"/>
			<point x="259.343" y="379.922" type="curve" smooth="yes"/>
			<point x="594.278" y="394.922" type="line"/>
			<point x="594.278" y="482.922" type="line"/>
			<point x="575.391" y="481.858"/>
			<point x="477.222" y="478.858"/>
			<point x="452.163" y="478.858" type="curve" smooth="yes"/>
			<point x="380.708" y="478.858"/>
			<point x="282.684" y="450.631"/>
			<point x="241.317" y="437.991" type="curve" smooth="yes"/>
			<point x="91.45552" y="392.19549"/>
			<point x="34.72013" y="268.11062"/>
			<point x="34.72013" y="170.60391" type="curve" smooth="yes"/>
			<point x="34.72013" y="80.99967"/>
			<point x="102.37386" y="-11"/>
		</contour>
	</outline>
</glyph>
<glyph name="period" format="2">
	<advance width="211.27"/>
	<unicode hex="002E"/>
	<outline>
		<contour>
			<point x="190.14789" y="64.14149" type="curve" smooth="yes"/>
			<point x="190.14789" y="18.71749"/>
			<point x="153.34789" y="-13.10551"/>
			<point x="107.02789" y="-13.10551" type="curve" smooth="yes"/>
			<point x="61.12189" y="-13.10551"/>
			<point x="23.90689" y="18.71749"/>
			<point x="23.90689" y="64.14149" type="curve" smooth="yes"/>
			<point x="23.90689" y="109.56549"/>
			<point x="61.12189" y="141.38749"/>
			<point x="107.02789" y="141.38749" type="curve" smooth="yes"/>
			<point x="152.93389" y="141.38749"/>
			<point x="190.14789" y="109.56549"/>
		</contour>
	</outline>
</glyph>
<glyph name="zero" format="2">
	<advance width="654"/>
	<unicode hex="0030"/>
	<outline>
		<contour>
			<point x="328" y="-11" type="curve" smooth="yes"/>
			<point x="459" y="-11"/>
			<point x="604" y="89"/>
			<point x="604" y="399.333" type="curve" smooth="yes"/>
			<point x="604" y="638"/>
			<point x="499" y="800"/>
			<point x="342" y="800" type="curve" smooth="yes"/>
			<point x="221.233" y="800"/>
			<point x="50" y="706.047"/>
			<point x="50" y="372" type="curve" smooth="yes"/>
			<point x="50" y="147.167"/>
			<point x="150.983" y="-11"/>
		</contour>
		<contour>
			<point x="195" y="268.218" type="curve" smooth="yes"/>
			<point x="195" y="480"/>
			<point x="195" y="576"/>
			<point x="213" y="624" type="curve"/>
			<point x="236.532" y="655.609"/>
			<point x="281.004" y="706"/>
			<point x="334.858" y="706" type="curve" smooth="yes"/>
			<point x="396.87" y="706"/>
			<point x="459" y="657"/>
			<point x="459" y="477.022" type="curve" smooth="yes"/>
			<point x="459" y="297.069"/>
			<point x="453.629" y="193.148"/>
			<point x="443" y="154" type="curve"/>
			<point x="426.35" y="124.991"/>
			<point x="382.694" y="73"/>
			<point x="334.858" y="73" type="curve" smooth="yes"/>
			<point x="266.567" y="73"/>
			<point x="195" y="125"/>
		</contour>
	</outline>
</glyph>
<glyph name="one" format="2">
	<advance width="400"/>
	<unicode hex="0031"/>
	<outline>
		<contour>
			<point x="279" y="796" type="line"/>
			<point x="216" y="763"/>
			<point x="134" y="734"/>
			<point x="63" y="719" type="curve"/>
			<point x="60" y="615" type="line"/>
			<point x="133" y="637"/>
			<point x="230" y="672"/>
			<point x="290" y="698" type="curve"/>
		</contour>
		<contour>
			<point x="313" y="14" type="curve"/>
			<point x="306" y="109"/>
			<point x="300" y="281"/>
			<point x="300" y="429" type="curve" smooth="yes"/>
			<point x="300" y="524"/>
			<point x="320" y="725"/>
			<point x="340" y="782" type="curve"/>
			<point x="335" y="786"/>
			<point x="291" y="800"/>
			<point x="280" y="800" type="curve" smooth="yes"/>
			<point x="270" y="800"/>
			<point x="186" y="758"/>
			<point x="180" y="752" type="curve"/>
			<point x="180" y="14" type="line"/>
			<point x="193" y="9"/>
			<point x="214" y="0"/>
			<point x="231" y="0" type="curve" smooth="yes"/>
			<point x="262" y="0"/>
			<point x="296" y="7"/>
		</contour>
	</outline>
</glyph>
<glyph name="two" format="2">
	<advance width="553.22"/>
	<unicode hex="0032"/>
	<guideline x="503.22" y="329.19" angle="270"/>
	<guideline x="47.78" y="318.08" angle="270"/>
	<outline>
		<contour>
			<point x="195.829" y="800" type="curve"/>
			<point x="245.739" y="800"/>
			<point x="348.12982" y="778.23775"/>
			<point x="368.22782" y="767.56475" type="curve"/>
			<point x="417.82386" y="746.19861"/>
			<point x="502.797" y="674.25782"/>
			<point x="502.797" y="582.012" type="curve" smooth="yes"/>
			<point x="502.797" y="490.90865"/>
			<point x="348.12982" y="258.82118"/>
			<point x="223.96187" y="127.63613" type="curve"/>
			<point x="188.829" y="93" type="line"/>
			<point x="307.609" y="93"/>
			<point x="446.22" y="101"/>
			<point x="503.22" y="109" type="curve"/>
			<point x="503.22" y="1" type="line"/>
			<point x="89.325" y="1" type="line"/>
			<point x="75.551" y="19.815"/>
			<point x="45.004" y="73"/>
			<point x="45.004" y="83.445" type="curve" smooth="yes"/>
			<point x="45.004" y="103.88798"/>
			<point x="370.539" y="452.36024"/>
			<point x="379.539" y="552.844" type="curve" smooth="yes"/>
			<point x="386.36143" y="629.01552"/>
			<point x="328.29687" y="697.46913"/>
			<point x="239.87587" y="697.46913" type="curve"/>
			<point x="200.48356" y="690.5232"/>
			<point x="155.61907" y="672.18091"/>
			<point x="108.34349" y="629.32044" type="curve"/>
			<point x="100.98744" y="637.17135"/>
			<point x="43.12972" y="677.0493"/>
			<point x="41.22827" y="687.83294" type="curve" smooth="yes"/>
			<point x="39.85107" y="695.64345"/>
			<point x="47.53675" y="729.1369"/>
			<point x="57.10485" y="745.78125" type="curve"/>
			<point x="101.98803" y="774.40198"/>
			<point x="129.74151" y="788.34699"/>
		</contour>
	</outline>
</glyph>
<glyph name="three" format="2">
	<advance width="567.13"/>
	<unicode hex="0033"/>
	<guideline x="516.8" y="369.12" angle="270"/>
	<outline>
		<contour>
			<point x="514.132" y="242.547" type="curve" smooth="yes"/>
			<point x="514.132" y="117.727"/>
			<point x="387.788" y="-12.354"/>
			<point x="240.193" y="-12.354" type="curve" smooth="yes"/>
			<point x="158.30938" y="-12.354"/>
			<point x="82.886" y="19.432"/>
			<point x="68.827" y="25.934" type="curve"/>
			<point x="64.53" y="32.458"/>
			<point x="49.997" y="70.295"/>
			<point x="49.997" y="78.11" type="curve" smooth="yes"/>
			<point x="49.997" y="85.551"/>
			<point x="112.246" y="134.414"/>
			<point x="121.835" y="142.592" type="curve"/>
			<point x="135.069" y="131.781"/>
			<point x="197.74988" y="77"/>
			<point x="267.41094" y="77" type="curve" smooth="yes"/>
			<point x="317.60234" y="77"/>
			<point x="344.112" y="88.313"/>
			<point x="362.966" y="101.575" type="curve"/>
			<point x="374.428" y="110.727"/>
			<point x="393.383" y="178.008"/>
			<point x="393.383" y="244.465" type="curve" smooth="yes"/>
			<point x="393.383" y="311.371"/>
			<point x="367.984" y="395.461"/>
			<point x="270.737" y="395.461" type="curve" smooth="yes"/>
			<point x="210.24896" y="395.461"/>
			<point x="189.504" y="386.686"/>
			<point x="175.042" y="381.128" type="curve"/>
			<point x="170.356" y="387.077"/>
			<point x="148.313" y="422.143"/>
			<point x="137.642" y="431.63" type="curve"/>
			<point x="214.189" y="487.694"/>
			<point x="350.112" y="635.092"/>
			<point x="401.383" y="695.471" type="curve"/>
			<point x="72.03" y="695.471" type="line"/>
			<point x="115.995" y="799.152" type="line"/>
			<point x="251.48463" y="785.14921"/>
			<point x="404.19688" y="787.35943"/>
			<point x="501.954" y="796.471" type="curve"/>
			<point x="501.954" y="682.471" type="line"/>
			<point x="440.29295" y="614.80332"/>
			<point x="351.52586" y="516.17989"/>
			<point x="281.599" y="442.562" type="curve"/>
			<point x="281.599" y="481.29699" type="line"/>
			<point x="322.40452" y="474.65228"/>
			<point x="364.56364" y="477.26444"/>
			<point x="417.523" y="439.63" type="curve" smooth="yes"/>
			<point x="465.61227" y="405.45638"/>
			<point x="514.132" y="347.868"/>
		</contour>
	</outline>
</glyph>
<glyph name="five" format="2">
	<advance width="564.04"/>
	<unicode hex="0035"/>
	<guideline x="530.39" y="440.85" angle="269"/>
	<outline>
		<contour>
			<point x="243.803" y="-11.145" type="curve" smooth="yes"/>
			<point x="380.498" y="-11.145"/>
			<point x="514.044" y="96.30093"/>
			<point x="514.044" y="249.961" type="curve" smooth="yes"/>
			<point x="514.044" y="406.89962"/>
			<point x="424.11" y="479.644"/>
			<point x="290.81" y="479.644" type="curve" smooth="yes"/>
			<point x="266.697" y="479.644"/>
			<point x="217.405" y="470.574"/>
			<point x="187.159" y="462.479" type="curve"/>
			<point x="198.525" y="707.564" type="line"/>
			<point x="76.525" y="698.564" type="line"/>
			<point x="82.51" y="628.757"/>
			<point x="75.176" y="473.272"/>
			<point x="56.441" y="388.684" type="curve"/>
			<point x="98.017" y="370.658" type="line"/>
			<point x="147.597" y="382.857"/>
			<point x="221.904" y="403.457"/>
			<point x="262.948" y="403.457" type="curve" smooth="yes"/>
			<point x="351.892" y="403.457"/>
			<point x="392.278" y="357.575"/>
			<point x="392.278" y="246.631" type="curve" smooth="yes"/>
			<point x="392.278" y="190.45"/>
			<point x="380.498" y="128.803"/>
			<point x="361.946" y="100.575" type="curve"/>
			<point x="348.553" y="90.974"/>
			<point x="311.26133" y="74.481"/>
			<point x="266.391" y="74.481" type="curve" smooth="yes"/>
			<point x="196.73" y="74.481"/>
			<point x="145.771" y="116.642"/>
			<point x="119.815" y="138.592" type="curve"/>
			<point x="108.632" y="132.781"/>
			<point x="52.057" y="83.563"/>
			<point x="50.158" y="75.339" type="curve" smooth="yes"/>
			<point x="48.4" y="67.724"/>
			<point x="61.538" y="39.736"/>
			<point x="64.258" y="32.412" type="curve"/>
			<point x="100.35934" y="7.00166"/>
			<point x="180.9583" y="-11.145"/>
		</contour>
		<contour>
			<point x="469.651" y="695.564" type="curve"/>
			<point x="513.651" y="799.564" type="line"/>
			<point x="361.481" y="784.927"/>
			<point x="253.948" y="784.29808"/>
			<point x="151.485" y="799.775" type="curve"/>
			<point x="76.525" y="698.564" type="line"/>
			<point x="255.567" y="689.564"/>
			<point x="340.609" y="686.564"/>
		</contour>
		<contour>
			<point x="385.683" y="797.762" type="move"/>
		</contour>
	</outline>
</glyph>
<glyph name="nine" format="2">
	<advance width="617"/>
	<unicode hex="0039"/>
	<outline>
		<contour>
			<point x="567" y="407.497" type="curve" smooth="yes"/>
			<point x="567" y="593.371"/>
			<point x="517.2894" y="805.497"/>
			<point x="315" y="805.497" type="curve" smooth="yes"/>
			<point x="162.72619" y="805.497"/>
			<point x="50" y="689.497"/>
			<point x="50" y="535.497" type="curve" smooth="yes"/>
			<point x="50" y="348.497"/>
			<point x="174" y="309.497"/>
			<point x="276.885" y="309.497" type="curve" smooth="yes"/>
			<point x="343.08011" y="309.497"/>
			<point x="402.68456" y="335.559"/>
			<point x="434.93156" y="345.497" type="curve"/>
			<point x="434.93156" y="262.90625"/>
			<point x="428.69839" y="147.87497"/>
			<point x="394.966" y="102.575" type="curve"/>
			<point x="383.66006" y="87.392"/>
			<point x="340.52311" y="77.481"/>
			<point x="302.411" y="77.481" type="curve" smooth="yes"/>
			<point x="232.12513" y="77.481"/>
			<point x="173.47406" y="130.90234"/>
			<point x="153.835" y="143.592" type="curve"/>
			<point x="142.652" y="137.781"/>
			<point x="83.065" y="89.392"/>
			<point x="83.065" y="78.442" type="curve" smooth="yes"/>
			<point x="83.065" y="70.511"/>
			<point x="93.2715" y="39.40353"/>
			<point x="102.5845" y="24.67353" type="curve"/>
			<point x="132.379" y="11.002"/>
			<point x="205.482" y="-12"/>
			<point x="272.589" y="-12" type="curve" smooth="yes"/>
			<point x="543.13859" y="-12"/>
			<point x="567" y="229.85937"/>
		</contour>
		<contour>
			<point x="441" y="415.497" type="curve"/>
			<point x="394.662" y="403.024"/>
			<point x="335.737" y="390.497"/>
			<point x="294" y="390.497" type="curve" smooth="yes"/>
			<point x="215" y="390.497"/>
			<point x="174" y="427.497"/>
			<point x="174" y="538.497" type="curve" smooth="yes"/>
			<point x="174" y="595.497"/>
			<point x="184" y="659.497"/>
			<point x="203" y="687.497" type="curve"/>
			<point x="216" y="697.497"/>
			<point x="248.823" y="711.497"/>
			<point x="306.245" y="711.497" type="curve" smooth="yes"/>
			<point x="428.174" y="711.497"/>
			<point x="441" y="553.599"/>
		</contour>
	</outline>
</glyph>
<glyph name="B" format="2">
	<advance width="573.97"/>
	<unicode hex="0042"/>
	<outline>
		<contour>
			<point x="39" y="0" type="curve"/>
			<point x="179" y="0" type="line" smooth="yes"/>
			<point x="307.807" y="0"/>
			<point x="354.947" y="6.98"/>
			<point x="406.432" y="22.337" type="curve" smooth="yes"/>
			<point x="466.717" y="40.319"/>
			<point x="533.972" y="132.94"/>
			<point x="533.972" y="254.467" type="curve" smooth="yes"/>
			<point x="533.972" y="374.51"/>
			<point x="443.981" y="392.318"/>
			<point x="376.424" y="419.115" type="curve"/>
			<point x="376.424" y="409.28" type="line"/>
			<point x="434.786" y="434.214"/>
			<point x="508.7" y="466.329"/>
			<point x="508.7" y="587.049" type="curve" smooth="yes"/>
			<point x="508.7" y="668.898"/>
			<point x="469.471" y="745.359"/>
			<point x="411.935" y="768.688" type="curve" smooth="yes"/>
			<point x="360.003" y="789.744"/>
			<point x="255.592" y="800.152"/>
			<point x="186.719" y="800.152" type="curve" smooth="yes"/>
			<point x="153.22" y="800.152"/>
			<point x="84.24" y="789.744"/>
			<point x="40" y="783.04" type="curve"/>
			<point x="46.77828" y="729.04076"/>
			<point x="49.49493" y="635.94799"/>
			<point x="54.04514" y="578.41365" type="curve"/>
			<point x="54.05457" y="153.61116" type="line"/>
			<point x="54.04137" y="121.30699"/>
			<point x="44.64807" y="41.22896"/>
		</contour>
		<contour>
			<point x="298.648" y="96.194" type="curve" smooth="yes"/>
			<point x="276.928" y="96.194"/>
			<point x="223.656" y="97.528"/>
			<point x="189" y="99.537" type="curve"/>
			<point x="189" y="361.385" type="line"/>
			<point x="240.823" y="360.638" type="line"/>
			<point x="338.994" y="360.638"/>
			<point x="394.29" y="328.265"/>
			<point x="394.29" y="247.666" type="curve" smooth="yes"/>
			<point x="394.29" y="155.718"/>
			<point x="364.107" y="96.194"/>
		</contour>
		<contour>
			<point x="229.879" y="441.137" type="curve" smooth="yes"/>
			<point x="215.425" y="441.137"/>
			<point x="201.777" y="441.611"/>
			<point x="189" y="442.385" type="curve"/>
			<point x="189" y="696.678" type="line"/>
			<point x="207.971" y="698.369"/>
			<point x="232.736" y="700.271"/>
			<point x="255.592" y="700.271" type="curve" smooth="yes"/>
			<point x="338.994" y="700.271"/>
			<point x="369.018" y="655.103"/>
			<point x="369.018" y="587.049" type="curve" smooth="yes"/>
			<point x="369.018" y="489.62"/>
			<point x="340.559" y="441.137"/>
		</contour>
	</outline>
</glyph>
<glyph name="F" format="2">
	<advance width="524.92"/>
	<unicode hex="0046"/>
	<outline>
		<contour>
			<point x="54" y="0" type="curve"/>
			<point x="202" y="0" type="line"/>
			<point x="202" y="744.941" type="line"/>
			<point x="164.769" y="711.471" type="line"/>
			<point x="285.674" y="711.471"/>
			<point x="428.202" y="708.937"/>
			<point x="484.919" y="704.937" type="curve"/>
			<point x="484.919" y="799.937" type="line"/>
			<point x="149.404" y="800.438" type="line" smooth="yes"/>
			<point x="130.135" y="800.467"/>
			<point x="86.449" y="787.751"/>
			<point x="51.143" y="779.471" type="curve"/>
			<point x="57.921" y="725.472"/>
			<point x="62.495" y="645.948"/>
			<point x="67.045" y="588.414" type="curve"/>
			<point x="67.055" y="153.611" type="line"/>
			<point x="67.055" y="128.688"/>
			<point x="59.648" y="41.229"/>
		</contour>
		<contour>
			<point x="188.143" y="341" type="line"/>
			<point x="449.143" y="341" type="line"/>
			<point x="449.143" y="435" type="line"/>
			<point x="358.99" y="427.602"/>
			<point x="278.27" y="426.622"/>
			<point x="188.143" y="435" type="curve"/>
		</contour>
	</outline>
</glyph>
<glyph name="I" format="2">
	<advance width="272"/>
	<unicode hex="0049"/>
	<outline>
		<contour>
			<point x="64" y="0" type="curve"/>
			<point x="212" y="0" type="line"/>
			<point x="211.616" y="789.373" type="line"/>
			<point x="206.174" y="791.694"/>
			<point x="170.345" y="800.453"/>
			<point x="159.429" y="800.373" type="curve" smooth="yes"/>
			<point x="148.779" y="800.295"/>
			<point x="72.879" y="783.28"/>
			<point x="61.143" y="779.471" type="curve"/>
			<point x="67.921" y="725.472"/>
			<point x="72.495" y="645.948"/>
			<point x="77.045" y="588.414" type="curve"/>
			<point x="77.055" y="153.611" type="line"/>
			<point x="77.055" y="128.688"/>
			<point x="69.648" y="41.229"/>
		</contour>
	</outline>
</glyph>
<glyph name="J" format="2">
	<advance width="564.92"/>
	<unicode hex="004A"/>
	<outline>
		<contour>
			<point x="499.005" y="145.96538" type="curve"/>
			<point x="499.015" y="588.414" type="line"/>
			<point x="503.565" y="645.948"/>
			<point x="508.139" y="735.472"/>
			<point x="514.917" y="789.471" type="curve"/>
			<point x="509.216" y="791.694"/>
			<point x="473.281" y="800.295"/>
			<point x="462.631" y="800.373" type="curve" smooth="yes"/>
			<point x="451.715" y="800.453"/>
			<point x="369.886" y="781.694"/>
			<point x="364.444" y="779.373" type="curve"/>
			<point x="364.06" y="163.8959" type="line"/>
			<point x="364.06" y="154.56446"/>
			<point x="353.738" y="130.289"/>
			<point x="349.44" y="125.689" type="curve"/>
			<point x="322.037" y="106.769"/>
			<point x="277.974" y="97.759"/>
			<point x="263.183" y="97.759" type="curve" smooth="yes"/>
			<point x="242.04471" y="97.759"/>
			<point x="171.8719" y="159.98055"/>
			<point x="128.296" y="214.168" type="curve"/>
			<point x="49.999" y="128.689" type="line"/>
			<point x="94.76191" y="76.58681"/>
			<point x="203.6471" y="-10.806"/>
			<point x="258.58" y="-10.806" type="curve" smooth="yes"/>
			<point x="280.463" y="-10.806"/>
			<point x="413.445" y="24.846"/>
			<point x="453.06" y="63.853" type="curve"/>
			<point x="471.1042" y="85.09889"/>
			<point x="493.88441" y="126.2971"/>
		</contour>
	</outline>
</glyph>
<glyph name="M" format="2">
	<advance width="860.84"/>
	<unicode hex="004D"/>
	<outline>
		<contour>
			<point x="800.544" y="779.471" type="curve"/>
			<point x="787.239" y="783.093"/>
			<point x="726.34699" y="800"/>
			<point x="719.83799" y="800" type="curve" smooth="yes"/>
			<point x="707.99499" y="800"/>
			<point x="623.38099" y="795.878"/>
			<point x="614.26299" y="795.317" type="curve"/>
			<point x="431.404" y="277.148" type="line"/>
			<point x="376.38751" y="413.922"/>
			<point x="256.575" y="795.317"/>
			<point x="256.575" y="795.317" type="curve"/>
			<point x="247.457" y="795.878"/>
			<point x="186.843" y="800"/>
			<point x="175" y="800" type="curve" smooth="yes"/>
			<point x="168.491" y="800"/>
			<point x="74.448" y="783.093"/>
			<point x="61.143" y="779.471" type="curve"/>
			<point x="67.921" y="725.472"/>
			<point x="72.495" y="645.948"/>
			<point x="77.045" y="588.414" type="curve"/>
			<point x="77.055" y="153.611" type="line"/>
			<point x="77.055" y="128.688"/>
			<point x="69.648" y="42.229"/>
			<point x="64" y="1" type="curve"/>
			<point x="175" y="1" type="line"/>
			<point x="176" y="632" type="line"/>
			<point x="199.502" y="546.234" type="line"/>
			<point x="365" y="83" type="line"/>
			<point x="494" y="83" type="line"/>
			<point x="661.33599" y="546.234" type="line"/>
			<point x="684.83799" y="632" type="line"/>
			<point x="685.83799" y="1" type="line"/>
			<point x="797.6879" y="1" type="line"/>
			<point x="792.0399" y="42.229"/>
			<point x="784.632" y="128.688"/>
			<point x="784.632" y="153.611" type="curve"/>
			<point x="784.642" y="588.414" type="line"/>
			<point x="789.192" y="645.948"/>
			<point x="793.766" y="725.472"/>
		</contour>
	</outline>
</glyph>
<glyph name="O" format="2">
	<advance width="698"/>
	<unicode hex="004F"/>
	<outline>
		<contour>
			<point x="345" y="-11" type="curve" smooth="yes"/>
			<point x="480.75781" y="-11"/>
			<point x="638" y="99"/>
			<point x="638" y="439" type="curve" smooth="yes"/>
			<point x="638" y="644"/>
			<point x="546" y="806"/>
			<point x="359" y="806" type="curve" smooth="yes"/>
			<point x="233" y="806"/>
			<point x="60" y="690.23438"/>
			<point x="60" y="378.71875" type="curve" smooth="yes"/>
			<point x="60" y="153"/>
			<point x="168" y="-11"/>
		</contour>
		<contour>
			<point x="202" y="400" type="curve" smooth="yes"/>
			<point x="202" y="483"/>
			<point x="209.86884" y="573.68298"/>
			<point x="220" y="601" type="curve"/>
			<point x="250" y="649"/>
			<point x="300" y="693"/>
			<point x="355.38306" y="693" type="curve" smooth="yes"/>
			<point x="435.733" y="693"/>
			<point x="496" y="623.00098"/>
			<point x="496" y="417.24741" type="curve" smooth="yes"/>
			<point x="496" y="292.9498"/>
			<point x="488.77817" y="223.56842"/>
			<point x="483" y="196.07031" type="curve"/>
			<point x="461" y="146.07031"/>
			<point x="417.99597" y="102"/>
			<point x="362" y="102" type="curve" smooth="yes"/>
			<point x="281.90176" y="102"/>
			<point x="202" y="136"/>
		</contour>
	</outline>
</glyph>
<glyph name="Q" format="2">
	<advance width="714"/>
	<unicode hex="0051"/>
	<guideline x="674" y="345.88" angle="270"/>
	<outline>
		<contour>
			<point x="592.37402" y="-174.16" type="curve"/>
			<point x="595.76001" y="-173.03101"/>
			<point x="643.52399" y="-156.10001"/>
			<point x="649.16803" y="-151.58501" type="curve" smooth="yes"/>
			<point x="657.06897" y="-143.68401"/>
			<point x="674" y="-52.256"/>
			<point x="674" y="-43.226" type="curve"/>
			<point x="609.755" y="-36.224"/>
			<point x="531.80499" y="-26.361"/>
			<point x="471.02499" y="-6.664" type="curve"/>
			<point x="347" y="16.001" type="line"/>
			<point x="294" y="0" type="line"/>
			<point x="381.022" y="-52.114"/>
			<point x="498.49399" y="-124.084"/>
		</contour>
		<contour>
			<point x="345" y="-11" type="curve" smooth="yes"/>
			<point x="480.758" y="-11"/>
			<point x="638" y="102"/>
			<point x="638" y="442" type="curve" smooth="yes"/>
			<point x="638" y="650"/>
			<point x="546" y="812"/>
			<point x="359" y="812" type="curve" smooth="yes"/>
			<point x="233" y="812"/>
			<point x="60" y="678"/>
			<point x="60" y="358" type="curve" smooth="yes"/>
			<point x="60" y="156"/>
			<point x="168" y="-11"/>
		</contour>
		<contour>
			<point x="202" y="403" type="curve" smooth="yes"/>
			<point x="202" y="486"/>
			<point x="209.869" y="579.68298"/>
			<point x="220" y="607" type="curve"/>
			<point x="250" y="655"/>
			<point x="303" y="699"/>
			<point x="355.383" y="699" type="curve" smooth="yes"/>
			<point x="435.733" y="699"/>
			<point x="496" y="629"/>
			<point x="496" y="420.24701" type="curve" smooth="yes"/>
			<point x="496" y="295.95001"/>
			<point x="488.77802" y="226.56799"/>
			<point x="483" y="196.07001" type="curve"/>
			<point x="461" y="146.07001"/>
			<point x="409.996" y="102"/>
			<point x="362" y="102" type="curve" smooth="yes"/>
			<point x="281.90201" y="102"/>
			<point x="202" y="139"/>
		</contour>
	</outline>
</glyph>
<glyph name="R" format="2">
	<advance width="640"/>
	<unicode hex="0052"/>
	<outline>
		<contour>
			<point x="64" y="0" type="curve"/>
			<point x="211.995" y="0" type="line"/>
			<point x="211.995" y="723" type="line"/>
			<point x="188.995" y="697" type="line"/>
			<point x="204.995" y="698"/>
			<point x="269.995" y="702"/>
			<point x="304.995" y="702" type="curve" smooth="yes"/>
			<point x="369.42908" y="702"/>
			<point x="414.995" y="646"/>
			<point x="414.995" y="559" type="curve" smooth="yes"/>
			<point x="414.995" y="479"/>
			<point x="388.995" y="388"/>
			<point x="252.995" y="388" type="curve" smooth="yes"/>
			<point x="226.995" y="388"/>
			<point x="202.995" y="390"/>
			<point x="181.995" y="392" type="curve"/>
			<point x="149.995" y="330" type="line"/>
			<point x="186.995" y="320"/>
			<point x="307.995" y="309"/>
			<point x="354.995" y="309" type="curve" smooth="yes"/>
			<point x="440.995" y="309"/>
			<point x="554.995" y="460"/>
			<point x="554.995" y="560" type="curve" smooth="yes"/>
			<point x="554.995" y="663"/>
			<point x="484.44501" y="765.146"/>
			<point x="423.995" y="782" type="curve" smooth="yes"/>
			<point x="371.58792" y="796.61157"/>
			<point x="308.91772" y="802"/>
			<point x="209.995" y="802" type="curve" smooth="yes"/>
			<point x="175.995" y="802"/>
			<point x="105.143" y="791.14961"/>
			<point x="61.143" y="784.14961" type="curve"/>
			<point x="67.921" y="730.15061"/>
			<point x="72.495" y="645.948"/>
			<point x="77.045" y="588.414" type="curve"/>
			<point x="77.055" y="153.611" type="line"/>
			<point x="77.055" y="128.688"/>
			<point x="69.648" y="41.229"/>
		</contour>
		<contour>
			<point x="442" y="0" type="line"/>
			<point x="610" y="0" type="line"/>
			<point x="592.72263" y="26.82834"/>
			<point x="541.11461" y="105.84907"/>
			<point x="527.17252" y="131.63507" type="curve"/>
			<point x="442" y="297.76631" type="line"/>
			<point x="387.46329" y="360.73126" type="line"/>
			<point x="292" y="335.07001" type="line"/>
		</contour>
	</outline>
</glyph>
<glyph name="V" format="2">
	<advance width="594.46"/>
	<unicode hex="0056"/>
	<outline>
		<contour>
			<point x="401.49" y="780.955" type="curve"/>
			<point x="419.479" y="689.33"/>
			<point x="415.693" y="503.48561"/>
			<point x="415.693" y="404.828" type="curve" smooth="yes"/>
			<point x="415.693" y="314.93401"/>
			<point x="415.479" y="78.593"/>
			<point x="340.7" y="32.203" type="curve"/>
			<point x="425.132" y="53.853"/>
			<point x="523.621" y="131.578"/>
			<point x="532.692" y="173.212" type="curve"/>
			<point x="535.7988" y="199.55322"/>
			<point x="545.20603" y="267.77534"/>
			<point x="549.22186" y="349.81417" type="curve"/>
			<point x="553.19024" y="593.0556" type="line"/>
			<point x="556.34377" y="663.42913"/>
			<point x="560.53393" y="755.31043"/>
			<point x="561.109" y="789.373" type="curve"/>
			<point x="555.687" y="791.694"/>
			<point x="518.934" y="800.453"/>
			<point x="508.018" y="800.373" type="curve" smooth="yes"/>
			<point x="497.367" y="800.295"/>
			<point x="413.26" y="784.764"/>
		</contour>
		<contour>
			<point x="33.001" y="780.955" type="curve"/>
			<point x="39.51993" y="757.60938"/>
			<point x="51.07406" y="669.14248"/>
			<point x="54.72385" y="587.24048" type="curve"/>
			<point x="58.346" y="366.80902" type="line"/>
			<point x="58.346" y="339.39022"/>
			<point x="73.07137" y="170.86128"/>
			<point x="85.306" y="138.689" type="curve"/>
			<point x="131.009" y="73.853"/>
			<point x="275.019" y="-10.806"/>
			<point x="306.887" y="-10.806" type="curve" smooth="yes"/>
			<point x="332.173" y="-10.806"/>
			<point x="471.982" y="89.415"/>
			<point x="496.36" y="122.116" type="curve"/>
			<point x="437.804" y="157.729" type="line"/>
			<point x="423.87" y="135.77"/>
			<point x="361.767" y="101.759"/>
			<point x="316.49" y="101.759" type="curve" smooth="yes"/>
			<point x="283.391" y="101.759"/>
			<point x="199.94603" y="172.62958"/>
			<point x="199.331" y="205.633" type="curve" smooth="yes"/>
			<point x="188.546" y="789.373" type="line"/>
			<point x="183.104" y="791.694"/>
			<point x="147.275" y="800.453"/>
			<point x="136.359" y="800.373" type="curve" smooth="yes"/>
			<point x="125.709" y="800.295"/>
			<point x="44.737" y="784.764"/>
		</contour>
	</outline>
</glyph>
<glyph name="X" format="2">
	<advance width="634.12"/>
	<unicode hex="0058"/>
	<guideline x="-376.39" y="551.05" angle="270"/>
	<guideline x="-907.9" y="561.08" angle="270"/>
	<outline>
		<contour>
			<point x="433.564" y="-7.369" type="line"/>
			<point x="594.117" y="-6.951" type="line"/>
			<point x="587.40983" y="21.02932"/>
			<point x="574.77398" y="67.71604"/>
			<point x="565.35093" y="107.47439" type="curve" smooth="yes"/>
			<point x="549.66969" y="173.6377"/>
			<point x="534.27216" y="246.07279"/>
			<point x="519.061" y="262.279" type="curve"/>
			<point x="414.612" y="380.681"/>
			<point x="280.449" y="500.456"/>
			<point x="266.038" y="570.298" type="curve" smooth="yes"/>
			<point x="220.836" y="789.373" type="line"/>
			<point x="215.435" y="791.694"/>
			<point x="179.759" y="800.453"/>
			<point x="168.841" y="800.373" type="curve" smooth="yes"/>
			<point x="158.19" y="800.295"/>
			<point x="72.947" y="784.764"/>
			<point x="61.145" y="780.955" type="curve"/>
			<point x="73.22868" y="732.49974"/>
			<point x="112.97512" y="613.2736"/>
			<point x="156.937" y="495.254" type="curve"/>
			<point x="220.983" y="417.796"/>
			<point x="402.16259" y="249.77171"/>
			<point x="415.394" y="141.422" type="curve" smooth="yes"/>
		</contour>
		<contour>
			<point x="407.634" y="780.955" type="curve"/>
			<point x="415.896" y="739.33"/>
			<point x="411.061" y="638.915"/>
			<point x="408.56" y="603.24" type="curve" smooth="yes"/>
			<point x="403.234" y="527.283"/>
			<point x="369.203" y="478.806"/>
			<point x="310.46" y="406.685" type="curve"/>
			<point x="343.693" y="371.931" type="line"/>
			<point x="406.294" y="407.279"/>
			<point x="502.92" y="530.696"/>
			<point x="523.88" y="564.315" type="curve"/>
			<point x="541.7972" y="613.2736"/>
			<point x="571.42441" y="728.33552"/>
			<point x="565.399" y="789.373" type="curve"/>
			<point x="560.018" y="791.694"/>
			<point x="525.418" y="800.453"/>
			<point x="514.5" y="800.373" type="curve" smooth="yes"/>
			<point x="503.848" y="800.295"/>
			<point x="419.47" y="784.764"/>
		</contour>
		<contour>
			<point x="185.628" y="-6.951" type="line"/>
			<point x="188.04" y="131.217"/>
			<point x="253.68146" y="309.05313"/>
			<point x="315.42446" y="366.17413" type="curve"/>
			<point x="269.81846" y="396.75013" type="line"/>
			<point x="213.28346" y="362.22213"/>
			<point x="99.774" y="246.701"/>
			<point x="85.427" y="215.929" type="curve"/>
			<point x="76.73812" y="196.25267"/>
			<point x="61.39283" y="153.73457"/>
			<point x="50.79051" y="105.45586" type="curve" smooth="yes"/>
			<point x="42.60377" y="68.1768"/>
			<point x="28.8008" y="17.7664"/>
			<point x="25.002" y="-7.369" type="curve"/>
		</contour>
	</outline>
</glyph>
<glyph name="Y" format="2">
	<advance width="600"/>
	<unicode hex="0059"/>
	<outline>
		<contour>
			<point x="388.35" y="780.955" type="curve"/>
			<point x="407.339" y="709.33"/>
			<point x="405.938" y="567.852"/>
			<point x="404.553" y="409.157" type="curve" smooth="yes"/>
			<point x="403.708" y="312.273"/>
			<point x="389.484" y="159.98"/>
			<point x="360.024" y="123.283" type="curve" smooth="yes"/>
			<point x="343.346" y="102.508"/>
			<point x="207.981" y="70.92"/>
			<point x="149.7" y="62.739" type="curve"/>
			<point x="179.748" y="-11" type="line"/>
			<point x="234.217" y="-11"/>
			<point x="395.816" y="9.109"/>
			<point x="423.059" y="17.163" type="curve"/>
			<point x="452.903" y="42.167"/>
			<point x="516.752" y="97.441"/>
			<point x="525.745" y="139.445" type="curve"/>
			<point x="533.754" y="225.228"/>
			<point x="535.921" y="404.13576"/>
			<point x="539.931" y="489.91776" type="curve"/>
			<point x="544.931" y="683.5651"/>
			<point x="549.63107" y="771.91897"/>
			<point x="550.969" y="789.373" type="curve"/>
			<point x="545.547" y="791.694"/>
			<point x="510.794" y="800.453"/>
			<point x="499.878" y="800.373" type="curve" smooth="yes"/>
			<point x="489.227" y="800.295"/>
			<point x="400.12" y="784.764"/>
		</contour>
		<contour>
			<point x="20.861" y="780.955" type="curve"/>
			<point x="27.34759" y="754.14399"/>
			<point x="40.08021" y="665.27708"/>
			<point x="40.08021" y="634.32455" type="curve"/>
			<point x="48.46595" y="420.39731" type="line"/>
			<point x="53.13017" y="381.06859"/>
			<point x="59.73036" y="344.66314"/>
			<point x="68.166" y="328.689" type="curve"/>
			<point x="113.869" y="263.853"/>
			<point x="264.879" y="229.194"/>
			<point x="286.747" y="229.194" type="curve" smooth="yes"/>
			<point x="299.354" y="229.194"/>
			<point x="407.59" y="278.31"/>
			<point x="438.572" y="301.212" type="curve"/>
			<point x="418.436" y="358.945" type="line"/>
			<point x="397.353" y="344.213"/>
			<point x="341.291" y="320.759"/>
			<point x="286.35" y="320.759" type="curve" smooth="yes"/>
			<point x="233.195" y="320.759"/>
			<point x="184.35305" y="352.65605"/>
			<point x="182.191" y="432.96223" type="curve" smooth="yes"/>
			<point x="179.92933" y="516.96856"/>
			<point x="175.406" y="754.14399"/>
			<point x="177.406" y="789.373" type="curve"/>
			<point x="171.964" y="791.694"/>
			<point x="136.135" y="800.453"/>
			<point x="125.219" y="800.373" type="curve" smooth="yes"/>
			<point x="114.569" y="800.295"/>
			<point x="32.597" y="784.764"/>
		</contour>
	</outline>
</glyph>
<glyph name="Z" format="2">
	<advance width="578.14"/>
	<unicode hex="005A"/>
	<outline>
		<contour>
			<point x="530" y="0" type="line"/>
			<point x="530.143" y="108" type="line"/>
			<point x="471.99" y="100.363"/>
			<point x="362.54197" y="92"/>
			<point x="226" y="92" type="curve" smooth="yes"/>
			<point x="191.21651" y="92"/>
			<point x="164.02101" y="91.47669"/>
			<point x="135.17839" y="91.50081" type="curve"/>
			<point x="40" y="84" type="line"/>
			<point x="40" y="0" type="line"/>
		</contour>
		<contour>
			<point x="538.143" y="779.471" type="line"/>
			<point x="503.143" y="788.471"/>
			<point x="455" y="800"/>
			<point x="436" y="800" type="curve" smooth="yes"/>
			<point x="359" y="800"/>
			<point x="206" y="800"/>
			<point x="40" y="800" type="curve"/>
			<point x="40" y="704" type="line"/>
			<point x="89" y="708"/>
			<point x="365.01223" y="711"/>
			<point x="401.01223" y="711" type="curve" smooth="yes"/>
			<point x="416.00042" y="711"/>
			<point x="479" y="710"/>
			<point x="530" y="706" type="curve"/>
		</contour>
		<contour>
			<point x="455" y="764.38961" type="line"/>
			<point x="370.10422" y="679.58287" type="line"/>
			<point x="40" y="84" type="line"/>
			<point x="96" y="53" type="line"/>
			<point x="153.90941" y="53" type="line"/>
			<point x="256.08726" y="198.98778" type="line"/>
			<point x="307.79797" y="306.67123"/>
			<point x="485.00855" y="619.3498"/>
			<point x="530" y="706" type="curve"/>
		</contour>
	</outline>
</glyph>
<glyph name="a" format="2">
	<advance width="538"/>
	<unicode hex="0061"/>
	<outline>
		<contour>
			<point x="487.04" y="502" type="curve"/>
			<point x="482.639" y="522.186"/>
			<point x="438.988" y="570.506"/>
			<point x="428.003" y="577" type="curve" smooth="yes"/>
			<point x="406.764" y="589.557"/>
			<point x="275.003" y="600"/>
			<point x="258.003" y="600" type="curve" smooth="yes"/>
			<point x="232.003" y="600"/>
			<point x="118.244" y="551.562"/>
			<point x="56.003" y="508" type="curve"/>
			<point x="98.955" y="440.505" type="line"/>
			<point x="134.973" y="463.894"/>
			<point x="216.003" y="513"/>
			<point x="271.003" y="513" type="curve" smooth="yes"/>
			<point x="306.042" y="513"/>
			<point x="349.003" y="481.8"/>
			<point x="349.003" y="433.73" type="curve" smooth="yes"/>
			<point x="349.003" y="100.1" type="line"/>
			<point x="364.003" y="69.734"/>
			<point x="384.003" y="36.367"/>
			<point x="409.003" y="0" type="curve"/>
			<point x="493.003" y="0" type="line"/>
			<point x="490.908" y="17.025"/>
			<point x="483.161" y="93.17"/>
			<point x="482.785" y="116.283" type="curve"/>
			<point x="482.79" y="397.791" type="line"/>
			<point x="485.086" y="438.815"/>
			<point x="484.539" y="470.879"/>
		</contour>
		<contour>
			<point x="216.194" y="-11" type="curve" smooth="yes"/>
			<point x="268.806" y="-11"/>
			<point x="364.582" y="54.016"/>
			<point x="410.582" y="84.016" type="curve"/>
			<point x="385.582" y="143.273" type="line"/>
			<point x="357.414" y="121.273"/>
			<point x="282.907" y="73"/>
			<point x="242.003" y="73" type="curve" smooth="yes"/>
			<point x="188.003" y="73"/>
			<point x="176.003" y="134.51"/>
			<point x="176.003" y="177.042" type="curve" smooth="yes"/>
			<point x="176.003" y="232.51"/>
			<point x="213.194" y="271.168"/>
			<point x="257.141" y="271.168" type="curve" smooth="yes"/>
			<point x="286.907" y="271.168"/>
			<point x="357.414" y="253.345"/>
			<point x="375.74" y="243.372" type="curve"/>
			<point x="382.919" y="310" type="line"/>
			<point x="360.101" y="318.9"/>
			<point x="273.155" y="341"/>
			<point x="237.141" y="341" type="curve" smooth="yes"/>
			<point x="87.31" y="341"/>
			<point x="45.003" y="246.114"/>
			<point x="45.003" y="158" type="curve" smooth="yes"/>
			<point x="45.003" y="66"/>
			<point x="114.603" y="-11"/>
		</contour>
	</outline>
</glyph>
<glyph name="d" format="2">
	<advance width="574.19"/>
	<unicode hex="0064"/>
	<outline>
		<contour>
			<point x="244.7" y="-11" type="curve" smooth="yes"/>
			<point x="327.348" y="-11"/>
			<point x="406.894" y="52.621"/>
			<point x="452.894" y="78.812" type="curve"/>
			<point x="413.582" y="145.273" type="line"/>
			<point x="388.582" y="122.273"/>
			<point x="319.388" y="73"/>
			<point x="275.132" y="73" type="curve" smooth="yes"/>
			<point x="218.225" y="73"/>
			<point x="169.854" y="118.466"/>
			<point x="169.854" y="300" type="curve" smooth="yes"/>
			<point x="169.854" y="466"/>
			<point x="240.854" y="513"/>
			<point x="287.854" y="513" type="curve" smooth="yes"/>
			<point x="318.384" y="513"/>
			<point x="400.461" y="479"/>
			<point x="420.461" y="466" type="curve"/>
			<point x="442.591" y="541.878" type="line"/>
			<point x="424.591" y="561.878"/>
			<point x="305.278" y="600"/>
			<point x="249.241" y="600" type="curve" smooth="yes"/>
			<point x="128.526" y="600"/>
			<point x="39.999" y="502.942"/>
			<point x="39.999" y="282.522" type="curve" smooth="yes"/>
			<point x="39.999" y="75"/>
			<point x="160.67" y="-11"/>
		</contour>
		<contour>
			<point x="539.19" y="813" type="curve"/>
			<point x="534.19" y="817"/>
			<point x="495.19" y="829"/>
			<point x="484.19" y="828" type="curve"/>
			<point x="473.19" y="828"/>
			<point x="386.19" y="790"/>
			<point x="380.19" y="784" type="curve"/>
			<point x="380.19" y="84.695" type="line"/>
			<point x="435.003" y="0" type="line"/>
			<point x="531.908" y="0.413" type="line"/>
			<point x="529.247" y="17.285"/>
			<point x="521.947" y="93.599"/>
			<point x="522.054" y="116.779" type="curve"/>
			<point x="522.065" y="618.287" type="line"/>
			<point x="524.471" y="667.311"/>
			<point x="529.766" y="781.627"/>
		</contour>
	</outline>
</glyph>
<glyph name="f" format="2">
	<advance width="421.17"/>
	<unicode hex="0066"/>
	<outline>
		<contour>
			<point x="30.003" y="512.179" type="line"/>
			<point x="120.003" y="512.179"/>
			<point x="273.98" y="512.179"/>
			<point x="363.98" y="512.179" type="curve"/>
			<point x="363.98" y="600.179" type="line"/>
			<point x="342.053" y="598.954"/>
			<point x="277.606" y="595.816"/>
			<point x="197.018" y="596.115" type="curve" smooth="yes"/>
			<point x="105.188" y="596.459"/>
			<point x="65.517" y="589.343"/>
			<point x="30.003" y="576.851" type="curve"/>
		</contour>
		<contour>
			<point x="79.76" y="-0.182" type="curve"/>
			<point x="223.422" y="-0.182" type="line"/>
			<point x="227.34" y="534.229" type="line"/>
			<point x="227.34" y="547.671"/>
			<point x="220.096" y="648.309"/>
			<point x="220.096" y="704.433" type="curve" smooth="yes"/>
			<point x="220.096" y="733.788"/>
			<point x="255.243" y="759.012"/>
			<point x="287.168" y="759.012" type="curve" smooth="yes"/>
			<point x="325.98" y="759.012"/>
			<point x="361.254" y="746.278"/>
			<point x="387.362" y="732.337" type="curve"/>
			<point x="395.73" y="740.932"/>
			<point x="431.168" y="790.293"/>
			<point x="431.168" y="797.835" type="curve" smooth="yes"/>
			<point x="431.168" y="804.695"/>
			<point x="414.004" y="833.813"/>
			<point x="404.421" y="844.076" type="curve"/>
			<point x="385.362" y="849.254"/>
			<point x="356.17" y="854.818"/>
			<point x="301.285" y="854.818" type="curve" smooth="yes"/>
			<point x="189.17" y="854.818"/>
			<point x="124.031" y="797.892"/>
			<point x="84.313" y="751.266" type="curve"/>
			<point x="89.471" y="719.805"/>
			<point x="95.711" y="659.33"/>
			<point x="100.28" y="618.287" type="curve"/>
			<point x="100.28" y="116.779" type="line"/>
			<point x="98.931" y="90.861"/>
			<point x="82.722" y="19.987"/>
		</contour>
	</outline>
</glyph>
<glyph name="h" format="2">
	<advance width="553.82"/>
	<unicode hex="0068"/>
	<outline>
		<contour>
			<point x="59.426" y="0.413" type="curve"/>
			<point x="203.665" y="0.413" type="line"/>
			<point x="204.002" y="812.92" type="line"/>
			<point x="199.148" y="816.905"/>
			<point x="161.731" y="828"/>
			<point x="150.815" y="827.92" type="curve" smooth="yes"/>
			<point x="140.165" y="827.842"/>
			<point x="50.86" y="791.034"/>
			<point x="45.002" y="784.92" type="curve"/>
			<point x="54.426" y="753.547"/>
			<point x="66.863" y="667.311"/>
			<point x="69.269" y="618.287" type="curve"/>
			<point x="69.28" y="116.779" type="line"/>
			<point x="69.387" y="93.463"/>
			<point x="62.087" y="17.091"/>
		</contour>
		<contour>
			<point x="503.04" y="502" type="curve"/>
			<point x="503.04" y="514.468"/>
			<point x="463.883" y="573.933"/>
			<point x="455.11" y="580" type="curve" smooth="yes"/>
			<point x="446.543" y="585.925"/>
			<point x="359.648" y="600"/>
			<point x="340.11" y="600" type="curve" smooth="yes"/>
			<point x="307.041" y="600"/>
			<point x="181.508" y="519.143"/>
			<point x="164.335" y="506.344" type="curve"/>
			<point x="190.607" y="457.497" type="line"/>
			<point x="197.508" y="465.711"/>
			<point x="265.34" y="503"/>
			<point x="298.221" y="503" type="curve" smooth="yes"/>
			<point x="332.653" y="503"/>
			<point x="366.04" y="472.121"/>
			<point x="366.04" y="457" type="curve" smooth="yes"/>
			<point x="366.04" y="0" type="line"/>
			<point x="508.819" y="0.032" type="line"/>
			<point x="506.356" y="17.057"/>
			<point x="498.871" y="93.17"/>
			<point x="498.785" y="116.283" type="curve"/>
			<point x="498.79" y="397.791" type="line"/>
			<point x="501.086" y="438.815"/>
			<point x="500.539" y="470.879"/>
		</contour>
	</outline>
</glyph>
<glyph name="l" format="2">
	<advance width="319.36"/>
	<unicode hex="006C"/>
	<outline>
		<contour>
			<point x="73.489" y="93.176" type="curve"/>
			<point x="87.247" y="64.799"/>
			<point x="110.573" y="27.782"/>
			<point x="123.821" y="18.163" type="curve"/>
			<point x="137.247" y="12.101"/>
			<point x="198.566" y="0.164"/>
			<point x="227.23" y="0" type="curve"/>
			<point x="264.357" y="73.739" type="line"/>
			<point x="246.854" y="81.336"/>
			<point x="211.869" y="102.133"/>
			<point x="211.869" y="122.283" type="curve"/>
			<point x="212.027" y="812.984" type="line"/>
			<point x="207.173" y="816.969"/>
			<point x="167.756" y="828.064"/>
			<point x="156.84" y="827.984" type="curve" smooth="yes"/>
			<point x="146.19" y="827.906"/>
			<point x="60.854" y="788.432"/>
			<point x="54.996" y="783.753" type="curve"/>
			<point x="64.409" y="752.292"/>
			<point x="79.469" y="659.33"/>
			<point x="81.802" y="618.287" type="curve"/>
			<point x="83.343" y="209.542" type="line"/>
			<point x="80.926" y="184.203"/>
			<point x="76.118" y="113.874"/>
		</contour>
	</outline>
</glyph>
<glyph name="m" format="2">
	<advance width="852.96"/>
	<unicode hex="006D"/>
	<outline>
		<contour>
			<point x="374.39" y="0" type="line"/>
			<point x="500.39" y="0" type="line"/>
			<point x="500.39" y="139.628"/>
			<point x="500.39" y="415.75"/>
			<point x="500.39" y="514.596" type="curve" smooth="yes"/>
			<point x="500.39" y="528.548"/>
			<point x="464.269" y="573.908"/>
			<point x="455.46" y="580" type="curve" smooth="yes"/>
			<point x="446.893" y="585.925"/>
			<point x="359.998" y="600"/>
			<point x="340.46" y="600" type="curve" smooth="yes"/>
			<point x="307.391" y="600"/>
			<point x="181.858" y="519.143"/>
			<point x="164.685" y="506.344" type="curve"/>
			<point x="190.957" y="457.497" type="line"/>
			<point x="197.858" y="465.711"/>
			<point x="265.69" y="503"/>
			<point x="298.571" y="503" type="curve" smooth="yes"/>
			<point x="333.003" y="503"/>
			<point x="374.39" y="472.121"/>
			<point x="374.39" y="457" type="curve" smooth="yes"/>
		</contour>
		<contour>
			<point x="802.18" y="501.968" type="curve"/>
			<point x="802.18" y="514.436"/>
			<point x="763.023" y="573.901"/>
			<point x="754.25" y="579.968" type="curve" smooth="yes"/>
			<point x="745.683" y="585.893"/>
			<point x="658.788" y="599.968"/>
			<point x="639.25" y="599.968" type="curve" smooth="yes"/>
			<point x="606.181" y="599.968"/>
			<point x="480.648" y="519.111"/>
			<point x="463.475" y="506.312" type="curve"/>
			<point x="489.747" y="457.465" type="line"/>
			<point x="496.648" y="464.956"/>
			<point x="564.48" y="502.968"/>
			<point x="597.361" y="502.968" type="curve" smooth="yes"/>
			<point x="631.793" y="502.968"/>
			<point x="665.18" y="472.089"/>
			<point x="665.18" y="456.968" type="curve" smooth="yes"/>
			<point x="665.18" y="-0.032" type="line"/>
			<point x="807.959" y="0" type="line"/>
			<point x="805.864" y="17.025"/>
			<point x="798.301" y="93.138"/>
			<point x="797.925" y="116.251" type="curve"/>
			<point x="797.93" y="397.759" type="line"/>
			<point x="800.226" y="438.783"/>
			<point x="799.679" y="470.847"/>
		</contour>
		<contour>
			<point x="59.422" y="0.413" type="curve"/>
			<point x="203.661" y="0.413" type="line"/>
			<point x="203.846" y="483.132" type="line"/>
			<point x="201.106" y="483" type="line"/>
			<point x="201.335" y="585.925" type="line"/>
			<point x="196.481" y="588.928"/>
			<point x="161.727" y="600"/>
			<point x="150.811" y="599.92" type="curve" smooth="yes"/>
			<point x="140.161" y="599.842"/>
			<point x="50.856" y="563.034"/>
			<point x="44.998" y="556.92" type="curve"/>
			<point x="54.422" y="525.547"/>
			<point x="66.859" y="439.311"/>
			<point x="69.271" y="398.287" type="curve"/>
			<point x="69.273" y="304.451"/>
			<point x="69.274" y="210.615"/>
			<point x="69.276" y="116.779" type="curve"/>
			<point x="69.269" y="93.745"/>
			<point x="61.915" y="17.468"/>
		</contour>
	</outline>
</glyph>
<glyph name="n" format="2">
	<advance width="553.82"/>
	<unicode hex="006E"/>
	<guideline x="62.04" y="299" angle="0"/>
	<outline>
		<contour>
			<point x="503.04" y="502" type="curve"/>
			<point x="503.04" y="514.468"/>
			<point x="463.883" y="573.933"/>
			<point x="455.11" y="580" type="curve" smooth="yes"/>
			<point x="446.543" y="585.925"/>
			<point x="359.648" y="600"/>
			<point x="340.11" y="600" type="curve" smooth="yes"/>
			<point x="307.041" y="600"/>
			<point x="181.508" y="519.143"/>
			<point x="164.335" y="506.344" type="curve"/>
			<point x="190.607" y="457.497" type="line"/>
			<point x="197.508" y="465.711"/>
			<point x="265.34" y="503"/>
			<point x="298.221" y="503" type="curve" smooth="yes"/>
			<point x="332.653" y="503"/>
			<point x="366.04" y="472.121"/>
			<point x="366.04" y="457" type="curve" smooth="yes"/>
			<point x="366.04" y="0" type="line"/>
			<point x="508.819" y="0.032" type="line"/>
			<point x="506.724" y="17.057"/>
			<point x="499.161" y="93.17"/>
			<point x="498.785" y="116.283" type="curve"/>
			<point x="498.79" y="397.791" type="line"/>
			<point x="501.086" y="438.815"/>
			<point x="500.539" y="470.879"/>
		</contour>
		<contour>
			<point x="59.426" y="0.413" type="curve"/>
			<point x="203.665" y="0.413" type="line"/>
			<point x="203.85" y="483.132" type="line"/>
			<point x="201.11" y="483" type="line"/>
			<point x="201.339" y="585.925" type="line"/>
			<point x="196.485" y="588.928"/>
			<point x="161.731" y="600"/>
			<point x="150.815" y="599.92" type="curve" smooth="yes"/>
			<point x="140.165" y="599.842"/>
			<point x="50.86" y="563.034"/>
			<point x="45.002" y="556.92" type="curve"/>
			<point x="54.426" y="525.547"/>
			<point x="66.863" y="439.311"/>
			<point x="69.275" y="398.287" type="curve"/>
			<point x="69.277" y="304.451"/>
			<point x="69.278" y="210.615"/>
			<point x="69.28" y="116.779" type="curve"/>
			<point x="69.273" y="93.745"/>
			<point x="61.919" y="17.468"/>
		</contour>
	</outline>
</glyph>
<glyph name="o" format="2">
	<advance width="551.19"/>
	<unicode hex="006F"/>
	<guideline x="-653.8" y="0" angle="0"/>
	<guideline x="11.2" y="298" angle="0"/>
	<guideline x="11.2" y="503" angle="0"/>
	<guideline x="11.2" y="195" angle="0"/>
	<guideline x="11.2" y="430" angle="0"/>
	<guideline x="275.2" y="0" angle="0"/>
	<guideline x="153.2" y="0" angle="0"/>
	<guideline x="403.2" y="0" angle="0"/>
	<guideline x="592.2" y="0" angle="0"/>
	<guideline x="355.2" y="0" angle="0"/>
	<guideline x="789.2" y="0" angle="0"/>
	<guideline x="859.2" y="0" angle="0"/>
	<guideline x="11.2" y="416" angle="0"/>
	<guideline x="11.2" y="-11" angle="0"/>
	<outline>
		<contour>
			<point x="268.181" y="-11" type="curve" smooth="yes"/>
			<point x="361.842" y="-11"/>
			<point x="511.193" y="81.621"/>
			<point x="511.193" y="330.029" type="curve" smooth="yes"/>
			<point x="511.193" y="482.669"/>
			<point x="425.62" y="599.957"/>
			<point x="279.012" y="599.957" type="curve" smooth="yes"/>
			<point x="185.351" y="599.957"/>
			<point x="40" y="507.336"/>
			<point x="40" y="258.928" type="curve" smooth="yes"/>
			<point x="40" y="106.288"/>
			<point x="121.573" y="-11"/>
		</contour>
		<contour>
			<point x="280.578" y="72.957" type="curve" smooth="yes"/>
			<point x="220.695" y="72.957"/>
			<point x="169.153" y="124.321"/>
			<point x="169.153" y="295.612" type="curve" smooth="yes"/>
			<point x="169.153" y="353.271"/>
			<point x="175.337" y="419.06"/>
			<point x="183.064" y="450.738" type="curve"/>
			<point x="197.229" y="471.024"/>
			<point x="245.094" y="513"/>
			<point x="273.615" y="513" type="curve" smooth="yes"/>
			<point x="333.79" y="513"/>
			<point x="381.04" y="464.178"/>
			<point x="381.04" y="293.345" type="curve" smooth="yes"/>
			<point x="381.04" y="208.652"/>
			<point x="371.101" y="134.918"/>
			<point x="367.129" y="124.219" type="curve"/>
			<point x="351.367" y="101.301"/>
			<point x="314.465" y="72.957"/>
		</contour>
	</outline>
</glyph>
<glyph name="p" format="2">
	<advance width="580"/>
	<unicode hex="0070"/>
	<outline>
		<contour>
			<point x="297.181" y="-11" type="curve"/>
			<point x="392.842" y="-11"/>
			<point x="540" y="73"/>
			<point x="540" y="313" type="curve" smooth="yes"/>
			<point x="540" y="496.961"/>
			<point x="431.156" y="600"/>
			<point x="330" y="600" type="curve" smooth="yes"/>
			<point x="301.11" y="600"/>
			<point x="188.416" y="551.476"/>
			<point x="158.246" y="531.363" type="curve"/>
			<point x="175.258" y="457.207" type="line"/>
			<point x="195.258" y="470.207"/>
			<point x="270.094" y="513"/>
			<point x="296" y="513" type="curve" smooth="yes"/>
			<point x="341.551" y="513"/>
			<point x="410" y="456"/>
			<point x="410" y="290" type="curve" smooth="yes"/>
			<point x="410" y="112"/>
			<point x="337.631" y="72"/>
			<point x="273.392" y="72" type="curve" smooth="yes"/>
			<point x="244.392" y="72"/>
			<point x="191" y="92.903"/>
			<point x="150" y="114.903" type="curve"/>
			<point x="134" y="46.993" type="line"/>
			<point x="163.708" y="29.279"/>
			<point x="262.904" y="-11"/>
		</contour>
		<contour>
			<point x="50" y="-210" type="curve"/>
			<point x="200" y="-210" type="line"/>
			<point x="200" y="585" type="line"/>
			<point x="195" y="589"/>
			<point x="156" y="601"/>
			<point x="145" y="600" type="curve"/>
			<point x="134" y="600"/>
			<point x="46" y="556"/>
			<point x="40" y="550" type="curve"/>
			<point x="60" y="438"/>
			<point x="73" y="320"/>
			<point x="73" y="204" type="curve" smooth="yes"/>
			<point x="73" y="-22"/>
			<point x="57" y="-155"/>
		</contour>
	</outline>
</glyph>
<glyph name="s" format="2">
	<advance width="458.55"/>
	<unicode hex="0073"/>
	<guideline x="42.39" y="204.14" angle="270"/>
	<guideline x="436.39" y="204.14" angle="270"/>
	<outline>
		<contour>
			<point x="436.924" y="171.459" type="curve"/>
			<point x="436.924" y="136.832"/>
			<point x="400.201" y="55.316"/>
			<point x="362.486" y="24.734" type="curve"/>
			<point x="331.865" y="10.417"/>
			<point x="273.743" y="-11"/>
			<point x="230.879" y="-11" type="curve" smooth="yes"/>
			<point x="168.593" y="-11"/>
			<point x="114.911" y="-1.759"/>
			<point x="40" y="50.437" type="curve"/>
			<point x="72" y="114.437" type="line"/>
			<point x="109.911" y="94.503"/>
			<point x="150.743" y="72.957"/>
			<point x="214.482" y="72.957" type="curve" smooth="yes"/>
			<point x="286.903" y="72.957"/>
			<point x="310.06" y="116.33155"/>
			<point x="310.06" y="169" type="curve" smooth="yes"/>
			<point x="310.06" y="200.633"/>
			<point x="255.952" y="230.581"/>
			<point x="186.694" y="262.092" type="curve" smooth="yes"/>
			<point x="101.898" y="300.672"/>
			<point x="49.645" y="352.764"/>
			<point x="49.645" y="423.935" type="curve" smooth="yes"/>
			<point x="49.645" y="490.466"/>
			<point x="101.451" y="549.978"/>
			<point x="135.388" y="575.807" type="curve"/>
			<point x="166.55" y="591.642"/>
			<point x="201.648" y="597.525"/>
			<point x="254.06" y="600" type="curve"/>
			<point x="301.435" y="600"/>
			<point x="391.137" y="594.376"/>
			<point x="405.196" y="589.874" type="curve"/>
			<point x="409.493" y="583.35"/>
			<point x="429.191" y="551.989"/>
			<point x="429.191" y="548.174" type="curve" smooth="yes"/>
			<point x="429.191" y="535.733"/>
			<point x="385.137" y="483.05"/>
			<point x="375.548" y="474.872" type="curve"/>
			<point x="361.216" y="482.244"/>
			<point x="294.788" y="513.043"/>
			<point x="237.589" y="513.043" type="curve" smooth="yes"/>
			<point x="188.899" y="513.043"/>
			<point x="161.06" y="479.187"/>
			<point x="161.06" y="441.187" type="curve" smooth="yes"/>
			<point x="161.06" y="391.853"/>
			<point x="236.045" y="359.01"/>
			<point x="316.474" y="319.211" type="curve" smooth="yes"/>
			<point x="403.458" y="276.168"/>
			<point x="436.924" y="229.161"/>
		</contour>
	</outline>
</glyph>
<glyph name="questiondown" format="2">
	<advance width="529.29"/>
	<unicode hex="00BF"/>
	<outline>
		<contour>
			<point x="193.925" y="552.647" type="curve" smooth="yes"/>
			<point x="193.925" y="598.071"/>
			<point x="230.725" y="629.894"/>
			<point x="277.045" y="629.894" type="curve" smooth="yes"/>
			<point x="322.951" y="629.894"/>
			<point x="360.166" y="598.071"/>
			<point x="360.166" y="552.647" type="curve" smooth="yes"/>
			<point x="360.166" y="507.223"/>
			<point x="322.951" y="475.401"/>
			<point x="277.045" y="475.401" type="curve" smooth="yes"/>
			<point x="231.139" y="475.401"/>
			<point x="193.925" y="507.223"/>
		</contour>
		<contour>
			<point x="209.362" y="371.656" type="curve"/>
			<point x="231.223" y="247.536" type="line"/>
			<point x="168.622" y="216.26"/>
			<point x="84.08" y="128.491"/>
			<point x="63.12" y="98.745" type="curve"/>
			<point x="51.019" y="68.805"/>
			<point x="46.275" y="-9.656"/>
			<point x="53.228" y="-71.976" type="curve"/>
			<point x="106.027" y="-159.746"/>
			<point x="138.502" y="-191.253"/>
			<point x="177.092" y="-205.621" type="curve"/>
			<point x="241.953" y="-225.784"/>
			<point x="359.525" y="-201.431"/>
			<point x="363.155" y="-197.195" type="curve"/>
			<point x="419.69" y="-167.301"/>
			<point x="474.941" y="-114.196"/>
			<point x="489.288" y="-86.819" type="curve"/>
			<point x="375.284" y="-36.24" type="line"/>
			<point x="352.79" y="-99.209"/>
			<point x="323.891" y="-147.483"/>
			<point x="301.412" y="-150.317" type="curve"/>
			<point x="278.999" y="-151.085"/>
			<point x="253.563" y="-150.317"/>
			<point x="237.772" y="-144.988" type="curve"/>
			<point x="200.291" y="-111.428"/>
			<point x="185.303" y="-71.6"/>
			<point x="177.691" y="-29.571" type="curve"/>
			<point x="173.378" y="4.089"/>
			<point x="183.921" y="19.758"/>
			<point x="194.277" y="51.324" type="curve" smooth="yes"/>
			<point x="215.503" y="116.025"/>
			<point x="277.474" y="159.492"/>
			<point x="336.217" y="210.033" type="curve"/>
			<point x="347.152" y="236.275"/>
			<point x="349.027" y="332.111"/>
			<point x="349.667" y="374.58" type="curve"/>
			<point x="343.27949" y="379.56379"/>
			<point x="316.555" y="397.482"/>
			<point x="299.999" y="397.482" type="curve"/>
			<point x="289.39276" y="397.482"/>
			<point x="216.34" y="375.9"/>
		</contour>
	</outline>
</glyph>
<glyph name="ntilde" format="2">
	<advance width="544.36"/>
	<unicode hex="00F1"/>
	<outline>
		<contour>
			<point x="504.356" y="758.202" type="curve"/>
			<point x="489.689" y="815" type="line"/>
			<point x="463.946" y="796.28"/>
			<point x="400.63" y="773.638"/>
			<point x="388.144" y="771.646" type="curve"/>
			<point x="372.51" y="767.984"/>
			<point x="317.161" y="807.134"/>
			<point x="266.996" y="818" type="curve"/>
			<point x="231.991" y="814.119"/>
			<point x="198.063" y="806.721"/>
			<point x="178.481" y="803.162" type="curve"/>
			<point x="153.92" y="791.894"/>
			<point x="125.553" y="775.132"/>
			<point x="75.488" y="737.951" type="curve"/>
			<point x="90.161" y="681.153" type="line"/>
			<point x="115.898" y="699.873"/>
			<point x="179.215" y="722.515"/>
			<point x="191.701" y="724.507" type="curve"/>
			<point x="207.773" y="728.169"/>
			<point x="263.081" y="689.019"/>
			<point x="312.848" y="678.153" type="curve"/>
			<point x="341.972" y="680.153"/>
			<point x="386.422" y="684.905"/>
			<point x="401.363" y="693.991" type="curve"/>
			<point x="425.162" y="705.993"/>
			<point x="454.059" y="723.169"/>
		</contour>
		<component base="n"/>
	</outline>
</glyph>
